<svg xmlns="http://www.w3.org/2000/svg" viewBox="0 0 917 1181">
    <path d="M150.5,793.5,176,819h34l36.375,36.375L242,859.75H221.25L211,849.5H174.5l-38-38L118,830l-11.5-11.5L131,794ZM137,836H82L62.5,855.5l12,12L93,849l29.5,29.5H157l12.75-12.75ZM58,891l22,22,12-12h33V891l-12-12H69ZM471.677,197.677l-67,67M320.25,239.25,339.5,220V177.5l-20-20L289,188v57h31ZM347.5,147.5l43-43L381,95l-52,52Zm57.625-52.375L415,85.25h8.25L452,56.5h11.5L479,41H444L397,88ZM515,23,501.5,36.5V49H525l8.5-8.5H572l17.25-17.25ZM646,0,632,14h40L685.5.5ZM556,355.5h66.5V240H507v57h64l-15,15Zm66.5,237H507V708H622.5Zm0-117.5H602l-23.5,23.5V521l-26.25,26.25H529l-14.625-14.625H507V590.5H622.5Zm0,352.5H507V940H622.5Zm0-117.5H507V825.5H622.5Zm0-255.5L604,473h18.5ZM389.5,473H430l17-17-32.5-32.5V375H459l15.5-15.5v-2h-85Zm93.562-337.938V180l-14.531,14.531L486,212v26h19V122.5h-9.375ZM505,297V240H486v40l17,17ZM778.5,725.5H789V710H763ZM770,855l-27.5-27.5H742V940h17l11-11ZM505,532.625H487l-52.812-52.813H397V475h-7.5V590.5H505ZM740,475H624.5V590.5H740Zm20.5,524.5V981H742v37Zm-136-407V708H729v-1h11V592.5ZM742,942v15l15-15ZM729,733V710H624.5V825.5H740V825l-51-51V733Zm11,94.5H624.5V940H740ZM270,841h-4v16l-16.5,16.5H187l-25.75,25.75L179,917h48l10,10v9H176l-21.5-21.5V940H270Zm91,101H316v11h34ZM47,900.5H31L7.75,923.75,24,940H47ZM505,940V827.5H389.5v92H401V931H389.5v9H442l17-17v-8h19v25ZM272,827.5v5.906h48V841H272v99h19l3.5-3.5H316V940h47l20.5-20.5h4v-92ZM19,976.25,0,992v26l20,20H43v-18h4V976.25ZM859.5,120.5h48V78h-48Zm0,2V238H917V164l-9.5-9.5v-32ZM270,475H247.5v19l-22.75,22.75V590.5H270ZM505,710H389.5V825.5H505ZM272,825.5H387.5V710H272ZM387.5,475H272V590.5H387.5ZM505,592.5H389.5V708H505ZM272,708H387.5V592.5H272ZM624.5,355.5H740V240H624.5Zm-470,431.625,23.688,23.687H216L230.688,825.5H270V710H154.5Zm84.094,46.281H270V827.5H232.688ZM135.375,768,152.5,785.125V710H135.375ZM859.5,419.75V473h50V458l-38.25-38.25Zm-2,0H824V365l7.5-7.5H742V473H857.5ZM742,590.5H857.5V475H742ZM742,240V355.5h91.5l6-6h18V240ZM478,942v6l27,27V942Zm262,120.5H712v-6H663V1070l-25,25v74H740Zm39,97.5v-65l-32.5-32.5H742V1169h28ZM507,942v35l11.5,11.5H576l16.25-16.25,30.25,30.25V942Zm156,69.5v43h49V1048l28-28V942H624.5v62.5l7,7ZM742,238H857.5V122.5H742Zm0,354.5V707h18l1,1h28v-6h30l27.5-27.5h11v-82Zm117.5,82H883V628l-23.5-23.5ZM740,1171H638v10H740ZM624.5,120.5H740v-94H709L681.25,54.25H624.5ZM742,1171v10h16l10-10ZM507,120.5H622.5V54.25H587L554.125,87.125H531l-24,24ZM859.5,475V578H877l32.5-32.5V475ZM742,120.5H857.5V54H821V11H767L751.5,26.5H742ZM859.5,240V349.5H896V280l21-21V240ZM440,942H389.5v9H431Zm65-821.5v-7.375l-7.375,7.375Zm-30.5,235V324H424V284l-26-26h-8.5v97.5Zm-128-77L322,254H290v70l-16,16v15.5H387.5V258H367Zm41,194.5V357.5H274V429l-2,2v42Zm237-235H740V122.5H624.5Zm-377,235H270V433l-22.5,22.5ZM507,238H622.5V122.5H507Zm49,119.5V368l17,17h45l3,3v10l1.5,1.5v-42ZM628,405v44l-3.5,3.5V473H740V357.5H624.5v44ZM154.5,942v6H161l9.5,9.5H223V966l-17,17H180l-14.5-14.5h-11V1043H171l54.5-54.5V971H270V942ZM151,968.5V977l-13.5,13.5H83L68.75,976.25H49V1020h57v23h46.5V968.5ZM270,708V592.5H224.75V612L154.5,682.25V708Zm15,247-4.5-4.5L289,942H272v29h13ZM47,960V942H26l18,18Zm88.375-252H152.5V684.25l-17.125,17.125ZM49,960H87l10.5,10.5H138V948h14.5v-6H49Zm103.5-20V912.5l-3-3H96L80.75,924.75,56.5,900.5H49V940ZM591.875,473l29.063-29.062V411l-18.469-18.469L542,392l-35,35v46ZM505,429l-44,44h44Zm21.25,104.75H552l17.875-17.875V495l20-20H507v42.5h3ZM459,475l-6.5,6.5,36,36H505V475Z"/>
</svg>