<?xml version="1.0" encoding="UTF-8"?>
<svg width="121px" height="93px" viewBox="0 0 121 93" version="1.1" xmlns="http://www.w3.org/2000/svg" xmlns:xlink="http://www.w3.org/1999/xlink">
    <!-- Generator: Sketch 56.3 (81716) - https://sketch.com -->
    <title>bike-shed-account--yellow</title>
    <desc>Created with Sketch.</desc>
    <g id="Concept" stroke="none" stroke-width="1" fill="none" fill-rule="evenodd">
        <g id="landing--xxl-v13" transform="translate(-1037.000000, -744.000000)" fill="#FFC917">
            <g id="section" transform="translate(168.000000, 606.000000)">
                <g id="list" transform="translate(0.000000, 136.000000)">
                    <g id="item" transform="translate(754.000000, 2.000000)">
                        <g id="img" transform="translate(115.000000, 0.000000)">
                            <g id="07_icons/03_large/bike-shed-account">
                                <g id="bike-shed-account--large">
                                    <path d="M104.5,52.7720294 L121,69.1837941 L121,91.6323529 C121,92.3872941 120.384,93 119.625,93 C118.866,93 118.25,92.3872941 118.25,91.6323529 L118.25,70.3162059 L104.5,56.6397353 L104.5,73.8529412 C104.5,75.3628235 103.268,76.5882353 101.75,76.5882353 L99,76.5882353 L98.99725,76.5800294 C98.439,76.5800294 97.91375,76.2490588 97.71025,75.6965294 L93.9015,65.4884118 C93.52475,64.4599412 92.7575,63.1524706 90.5135,63.5600294 C89.463,63.7569706 88.47575,64.8866471 88.72325,66.3691765 C89.9745,71.7440294 91.9215,80.073 92.07825,80.6446765 C92.34775,81.6239118 92.642,82.0396765 93.05725,82.4280882 C93.071,82.4390294 93.09575,82.4581765 101.3485,90.6667941 C101.88475,91.2001765 101.88475,92.0672647 101.3485,92.6006471 C101.079,92.8659706 100.727,93 100.375,93 C100.023,93 99.671,92.8659706 99.4015,92.5979118 C99.4015,92.5979118 91.37425,84.6190588 91.157,84.4057059 C90.31825,83.6261471 89.793,82.7098235 89.42175,81.3640588 C89.3365,81.0522353 88.858,79.0308529 88.286,76.5882353 L55,76.5882353 C53.482,76.5882353 52.25,75.3628235 52.25,73.8529412 L52.25,43.7647059 C52.25,42.2548235 53.482,41.0294118 55,41.0294118 L101.75,41.0294118 C103.268,41.0294118 104.5,42.2548235 104.5,43.7647059 L104.5,52.7720294 Z M101.75,73.8529412 L101.75,54.7058824 L79.75,54.7058824 L79.75,51.9705882 L101.75,51.9705882 L101.75,43.7647059 L55,43.7647059 L55,73.8529412 L87.648,73.8529412 C86.90825,70.68 86.18225,67.5645 86.02825,66.8998235 C85.492,63.7022647 87.68375,61.3034118 90.01025,60.8712353 C93.06275,60.2995588 95.4195,61.6480588 96.48375,64.542 L99.957,73.8529412 L101.75,73.8529412 Z M60.5,49.2352941 L74.25,49.2352941 L74.25,65.6470588 L60.5,65.6470588 L60.5,49.2352941 Z M71.5,62.9117647 L71.5,51.9705882 L63.25,51.9705882 L63.25,62.9117647 L71.5,62.9117647 Z M82.5,57.4411765 L99,57.4411765 L99,60.1764706 L82.5,60.1764706 L82.5,57.4411765 Z M73.42225,38.2941176 L73.42225,38.2968529 L70.67225,38.2968529 C70.72725,37.8427941 70.8125,37.3969412 70.8125,36.9292059 C70.8125,30.5176765 65.56825,25.3042059 59.125,25.3042059 C58.1295,25.3042059 57.18075,25.4655882 56.25675,25.7008235 L60.40925,36.4368529 C60.6815,37.1398235 60.32675,37.9303235 59.62,38.2038529 C59.45775,38.2640294 59.29,38.2941176 59.125,38.2941176 C58.57225,38.2941176 58.0525,37.9604118 57.8435,37.4133529 L53.6965,26.691 C49.99225,28.644 47.4375,32.4734118 47.4375,36.9237353 C47.4375,39.3636176 48.20475,41.6257059 49.5,43.4966471 L49.5,47.5503529 C46.5685,44.9217353 44.6875,41.1525 44.6875,36.9264706 C44.6875,31.3136471 47.97375,26.4940588 52.70375,24.1335 L50.776,19.1470588 L25.59975,19.1470588 L22.76175,24.7899706 C26.21575,26.9481176 28.6605,30.5012647 29.3315,34.6643824 L43.07325,22.2379412 C43.637,21.7291765 44.50875,21.7674706 45.0175,22.3309412 C45.52625,22.8889412 45.485,23.7532941 44.924,24.2620588 L29.799,37.9385294 C29.733,37.9987059 29.65325,38.0287941 29.579,38.0725588 C29.5295,38.1026471 29.48825,38.1436765 29.436,38.1682941 C28.78975,45.4988824 22.65725,51.2867647 15.125,51.2867647 C7.16375,51.2867647 0.6875,44.8451471 0.6875,36.9264706 C0.6875,29.0077941 7.16375,22.5661765 15.125,22.5661765 C16.9565,22.5661765 18.69175,22.9409118 20.306,23.5618235 L23.90025,16.4117647 L49.72,16.4117647 L44.43175,2.73529412 L37.125,2.73529412 C36.366,2.73529412 35.75,2.12258824 35.75,1.36764706 C35.75,0.612705882 36.366,0 37.125,0 L45.375,0 C45.94425,0 46.45575,0.347382353 46.65925,0.875294118 L55.27225,23.1515294 C56.507,22.8096176 57.783,22.5661765 59.125,22.5661765 C67.08625,22.5661765 73.5625,29.0077941 73.5625,36.9264706 C73.5625,37.3942059 73.46625,37.8373235 73.42225,38.2941176 Z M15.125,48.5514706 C21.098,48.5514706 25.98475,44.0546471 26.675,38.2913824 L15.12775,38.2913824 C15.125,38.2913824 15.12225,38.2886471 15.1195,38.2886471 C14.91325,38.2859118 14.7235,38.2366765 14.55025,38.1546176 C14.5365,38.1491471 14.52275,38.1518824 14.51175,38.1464118 C14.45125,38.1163235 14.41275,38.0670882 14.35775,38.0287941 C14.27525,37.9713529 14.19,37.9193824 14.12125,37.8455294 C14.06075,37.7826176 14.02225,37.7087647 13.97825,37.6349118 C13.92875,37.5610588 13.87925,37.4899412 13.84625,37.4051471 C13.8105,37.3121471 13.80225,37.2164118 13.7885,37.1179412 C13.78025,37.0522941 13.75,36.9948529 13.75,36.9264706 C13.75,36.9127941 13.75825,36.8991176 13.75825,36.8854412 C13.761,36.7924412 13.79125,36.7049118 13.81325,36.6146471 C13.83525,36.5271176 13.84625,36.4368529 13.88475,36.3547941 C13.89025,36.3411176 13.89025,36.3274412 13.89575,36.3137647 L19.06575,26.0290588 C17.82825,25.5859412 16.51375,25.3014706 15.125,25.3014706 C8.68175,25.3014706 3.4375,30.5149412 3.4375,36.9264706 C3.4375,43.338 8.68175,48.5514706 15.125,48.5514706 Z M26.67225,35.5588235 C26.257,32.0822647 24.343,29.0679706 21.538,27.2271176 L17.34975,35.5588235 L26.67225,35.5588235 Z M23.375,8.20588235 L30.25,8.20588235 C31.009,8.20588235 31.625,8.81858824 31.625,9.57352941 C31.625,10.3284706 31.009,10.9411765 30.25,10.9411765 L23.375,10.9411765 C22.616,10.9411765 22,10.3284706 22,9.57352941 C22,8.81858824 22.616,8.20588235 23.375,8.20588235 Z" id="Combined-Shape" fill-rule="nonzero"></path>
                                </g>
                            </g>
                        </g>
                    </g>
                </g>
            </g>
        </g>
    </g>
</svg>