<?xml version="1.0" encoding="UTF-8"?>
<svg width="74px" height="97px" viewBox="0 0 74 97" version="1.1" xmlns="http://www.w3.org/2000/svg" xmlns:xlink="http://www.w3.org/1999/xlink">
    <!-- Generator: Sketch 56.2 (81672) - https://sketch.com -->
    <title>invoice</title>
    <desc>Created with Sketch.</desc>
    <g id="Concept" stroke="none" stroke-width="1" fill="none" fill-rule="evenodd">
        <g id="landing--xxl" transform="translate(-808.000000, -1369.000000)" fill="#003082">
            <g id="invoice" transform="translate(808.000000, 1369.000000)">
                <g id="Combined-Shape">
                    <path d="M60.930069,0.122526316 L74,13.0184211 L74,97 L0,97 L0,0 L60.6187586,0 L60.930069,0.122526316 Z M61.2413793,3.85447368 L61.2413793,12.7631579 L69.7666897,12.7631579 L61.2413793,3.85447368 Z M71.4482759,94.4473684 L71.4482759,15.3157895 L58.6896552,15.3157895 L58.6896552,2.55263158 L2.55172414,2.55263158 L2.55172414,94.4473684 L71.4482759,94.4473684 Z M15.3103448,30.6315789 L38.2758621,30.6315789 L38.2758621,33.1842105 L15.3103448,33.1842105 L15.3103448,30.6315789 Z M56.137931,30.6315789 L58.6896552,30.6315789 L58.6896552,33.1842105 L56.137931,33.1842105 L56.137931,30.6315789 Z M15.3103448,51.0526316 L38.2758621,51.0526316 L38.2758621,53.6052632 L15.3103448,53.6052632 L15.3103448,51.0526316 Z M15.3103448,40.8421053 L38.2758621,40.8421053 L38.2758621,43.3947368 L15.3103448,43.3947368 L15.3103448,40.8421053 Z M40.8275862,30.6315789 L53.5862069,30.6315789 L53.5862069,33.1842105 L40.8275862,33.1842105 L40.8275862,30.6315789 Z M40.8275862,51.0526316 L53.5862069,51.0526316 L53.5862069,53.6052632 L40.8275862,53.6052632 L40.8275862,51.0526316 Z M40.8275862,40.8421053 L53.5862069,40.8421053 L53.5862069,43.3947368 L40.8275862,43.3947368 L40.8275862,40.8421053 Z M56.137931,51.0526316 L58.6896552,51.0526316 L58.6896552,53.6052632 L56.137931,53.6052632 L56.137931,51.0526316 Z M56.137931,40.8421053 L58.6896552,40.8421053 L58.6896552,43.3947368 L56.137931,43.3947368 L56.137931,40.8421053 Z M15.3103448,61.2631579 L38.2758621,61.2631579 L38.2758621,63.8157895 L15.3103448,63.8157895 L15.3103448,61.2631579 Z M56.137931,61.2631579 L58.6896552,61.2631579 L58.6896552,63.8157895 L56.137931,63.8157895 L56.137931,61.2631579 Z M40.8275862,61.2631579 L53.5862069,61.2631579 L53.5862069,63.8157895 L40.8275862,63.8157895 L40.8275862,61.2631579 Z M45.9310345,74.0263158 L58.6896552,74.0263158 L58.6896552,76.5789474 L45.9310345,76.5789474 L45.9310345,74.0263158 Z" fill-rule="nonzero"></path>
                </g>
            </g>
        </g>
    </g>
</svg>