<?xml version="1.0" encoding="UTF-8"?>
<svg width="135px" height="79px" viewBox="0 0 135 79" version="1.1" xmlns="http://www.w3.org/2000/svg" xmlns:xlink="http://www.w3.org/1999/xlink">
    <!-- Generator: Sketch 56.2 (81672) - https://sketch.com -->
    <title>train-public-transport</title>
    <desc>Created with Sketch.</desc>
    <g id="Concept" stroke="none" stroke-width="1" fill="none" fill-rule="evenodd">
        <g id="landing--xxl" transform="translate(-500.000000, -1018.000000)" fill="#003082">
            <g id="Group" transform="translate(466.000000, 957.000000)">
                <g id="07_icons/03_large/train-public-transport" transform="translate(33.000000, 61.000000)">
                    <g id="train-public-transport--large">
                        <path d="M16.7017544,45.2647059 C15.7134554,45.2647059 14.9122807,44.4647441 14.9122807,43.4779412 C14.9122807,42.4911383 15.7134554,41.6911765 16.7017544,41.6911765 C17.6900534,41.6911765 18.4912281,42.4911383 18.4912281,43.4779412 C18.4912281,44.4647441 17.6900534,45.2647059 16.7017544,45.2647059 Z M28.6315789,45.2647059 C27.6432799,45.2647059 26.8421053,44.4647441 26.8421053,43.4779412 C26.8421053,42.4911383 27.6432799,41.6911765 28.6315789,41.6911765 C29.619878,41.6911765 30.4210526,42.4911383 30.4210526,43.4779412 C30.4210526,44.4647441 29.619878,45.2647059 28.6315789,45.2647059 Z M14.3157895,52.4117647 C11.6816842,52.4117647 9.54385965,50.2795588 9.54385965,47.6470588 L9.54385965,38.1176471 L9.54385965,23.8235294 L9.54385965,21.4411765 C9.54385965,18.8086765 11.6816842,16.6764706 14.3157895,16.6764706 L31.0175439,16.6764706 C33.6516491,16.6764706 35.7894737,18.8086765 35.7894737,21.4411765 L35.7894737,23.8235294 L35.7894737,38.1176471 L35.7894737,47.6470588 C35.7894737,50.2795588 33.6516491,52.4117647 31.0175439,52.4117647 L14.3157895,52.4117647 Z M33.4035088,35.7352941 L33.4035088,26.2058824 L31.0175439,26.2058824 L31.0175439,35.7352941 L33.4035088,35.7352941 Z M14.3157895,35.7352941 L14.3157895,26.2058824 L11.9298246,26.2058824 L11.9298246,35.7352941 L14.3157895,35.7352941 Z M16.7017544,26.2058824 L16.7017544,35.7352941 L28.6315789,35.7352941 L28.6315789,26.2058824 L16.7017544,26.2058824 Z M11.9298246,21.4411765 L11.9298246,23.8235294 L33.4035088,23.8235294 L33.4035088,21.4411765 C33.4035088,20.1285 32.3345965,19.0588235 31.0175439,19.0588235 L14.3157895,19.0588235 C12.9987368,19.0588235 11.9298246,20.1285 11.9298246,21.4411765 Z M33.4035088,38.1176471 L11.9298246,38.1176471 L11.9298246,47.6470588 C11.9298246,48.9597353 12.9987368,50.0294118 14.3157895,50.0294118 L31.0175439,50.0294118 C32.3345965,50.0294118 33.4035088,48.9597353 33.4035088,47.6470588 L33.4035088,38.1176471 Z M11.9298246,3.57352941 C11.9298246,2.916 12.4642807,2.38235294 13.122807,2.38235294 L32.2105263,2.38235294 C32.8690526,2.38235294 33.4035088,2.916 33.4035088,3.57352941 C33.4035088,4.23105882 32.8690526,4.76470588 32.2105263,4.76470588 L29.8030877,4.76470588 C29.8030877,4.86 29.8126316,4.95529412 29.7887719,5.05297059 L28.0708772,11.9117647 L25.6133333,11.9117647 L27.402807,4.76470588 L17.9305263,4.76470588 L19.72,11.9117647 L17.2624561,11.9117647 L15.5445614,5.05297059 C15.5183158,4.95529412 15.5302456,4.86 15.5302456,4.76470588 L13.122807,4.76470588 C12.4642807,4.76470588 11.9298246,4.23105882 11.9298246,3.57352941 Z M2.38596491,67.8970588 C2.00182456,67.8970588 1.62245614,67.7112353 1.39340351,67.3657941 C1.02835088,66.8178529 1.1762807,66.0793235 1.72505263,65.7148235 L14.552,57.1764706 L17.8732632,57.1764706 C17.8708772,57.5600294 17.7062456,57.9388235 17.3626667,58.1675294 L3.04687719,67.6969412 C2.84168421,67.8327353 2.61263158,67.8970588 2.38596491,67.8970588 Z M21.4736842,67.8970588 C21.2231579,67.8970588 20.9726316,67.8184412 20.7578947,67.6588235 C20.2305965,67.2633529 20.1232281,66.5176765 20.5192982,65.9911765 L27.1427368,57.1764706 L29.8054737,57.1764706 C29.8054737,57.4266176 29.7482105,57.6767647 29.5859649,57.8911765 L22.4280702,67.4205882 C22.1942456,67.7326765 21.8363509,67.8970588 21.4736842,67.8970588 Z M110.947368,46.4558824 C109.629636,46.4558824 108.561404,45.3892666 108.561404,44.0735294 C108.561404,42.7577922 109.629636,41.6911765 110.947368,41.6911765 C112.2651,41.6911765 113.333333,42.7577922 113.333333,44.0735294 C113.333333,45.3892666 112.2651,46.4558824 110.947368,46.4558824 Z M125.263158,46.4558824 C123.945426,46.4558824 122.877193,45.3892666 122.877193,44.0735294 C122.877193,42.7577922 123.945426,41.6911765 125.263158,41.6911765 C126.58089,41.6911765 127.649123,42.7577922 127.649123,44.0735294 C127.649123,45.3892666 126.58089,46.4558824 125.263158,46.4558824 Z M131.22807,14.2941176 C133.862175,14.2941176 136,16.4263235 136,19.0588235 L136,47.6470588 C136,50.2795588 133.862175,52.4117647 131.22807,52.4117647 L104.982456,52.4117647 C102.348351,52.4117647 100.210526,50.2795588 100.210526,47.6470588 L100.210526,19.0588235 C100.210526,16.4263235 102.348351,14.2941176 104.982456,14.2941176 L131.22807,14.2941176 Z M128.842105,16.6764706 L107.368421,16.6764706 L107.368421,35.7352941 L128.842105,35.7352941 L128.842105,16.6764706 Z M133.614035,47.6470588 L133.614035,19.0588235 C133.614035,17.7461471 132.545123,16.6764706 131.22807,16.6764706 L131.22807,35.7352941 C131.22807,37.0503529 130.159158,38.1176471 128.842105,38.1176471 L107.368421,38.1176471 C106.051368,38.1176471 104.982456,37.0503529 104.982456,35.7352941 L104.982456,16.6764706 C103.665404,16.6764706 102.596491,17.7461471 102.596491,19.0588235 L102.596491,47.6470588 C102.596491,48.9597353 103.665404,50.0294118 104.982456,50.0294118 L131.22807,50.0294118 C132.545123,50.0294118 133.614035,48.9597353 133.614035,47.6470588 Z M96.6315789,21.4411765 C97.2901053,21.4411765 97.8245614,21.9748235 97.8245614,22.6323529 L97.8245614,28.5882353 C97.8245614,29.2457647 97.2901053,29.7794118 96.6315789,29.7794118 C95.9730526,29.7794118 95.4385965,29.2457647 95.4385965,28.5882353 L95.4385965,22.6323529 C95.4385965,21.9748235 95.9730526,21.4411765 96.6315789,21.4411765 Z M104.982456,57.7720588 L104.982456,54.7941176 L109.754386,54.7941176 L109.754386,57.7720588 C109.754386,58.7583529 108.952702,59.5588235 107.964912,59.5588235 L106.77193,59.5588235 C105.78414,59.5588235 104.982456,58.7583529 104.982456,57.7720588 Z M128.245614,59.5588235 C127.257825,59.5588235 126.45614,58.7583529 126.45614,57.7720588 L126.45614,54.7941176 L131.22807,54.7941176 L131.22807,57.7720588 C131.22807,58.7583529 130.426386,59.5588235 129.438596,59.5588235 L128.245614,59.5588235 Z M59.7684211,47.4088235 C57.9104189,47.4088235 56.4042105,45.9048953 56.4042105,44.0497059 C56.4042105,42.1945164 57.9104189,40.6905882 59.7684211,40.6905882 C61.6264232,40.6905882 63.1326316,42.1945164 63.1326316,44.0497059 C63.1326316,45.9048953 61.6264232,47.4088235 59.7684211,47.4088235 Z M76.5894737,47.4088235 C74.7314715,47.4088235 73.2252632,45.9048953 73.2252632,44.0497059 C73.2252632,42.1945164 74.7314715,40.6905882 76.5894737,40.6905882 C78.4474759,40.6905882 79.9536842,42.1945164 79.9536842,44.0497059 C79.9536842,45.9048953 78.4474759,47.4088235 76.5894737,47.4088235 Z M68.2242807,0.447882353 C76.5250526,0.447882353 84.2460351,2.96841176 90.6666667,7.27808824 L90.6666667,7.87605882 L90.6666667,42.8823529 L90.6666667,49.9293529 L90.6666667,50.5845 C84.2030877,54.9823235 76.4057544,57.5600294 68.0119298,57.5600294 C59.6085614,57.5600294 51.8016842,54.9727941 45.3333333,50.5654412 L45.3333333,49.9293529 L45.3333333,42.8823529 L45.3333333,7.87605882 L45.3333333,7.59970588 C51.8446316,3.09944118 59.7254737,0.447882353 68.2242807,0.447882353 Z M82.9385263,5.79626471 C78.4099649,3.888 73.44,2.83023529 68.2242807,2.83023529 C62.9751579,2.83023529 57.9741754,3.89991176 53.4241404,5.832 L57.1796491,31.0801765 C64.3017544,33.3410294 72.0537544,33.3410294 79.1758596,31.0801765 L82.9385263,5.79626471 Z M88.2807018,49.2670588 L88.2783158,49.2670588 L88.2783158,8.61220588 C87.2785965,7.98802941 86.2478596,7.40673529 85.1884912,6.87547059 L81.3208421,32.8764706 L80.6312982,33.1099412 C76.6109474,34.4702647 72.4235789,35.1611471 68.1789474,35.1611471 C63.9343158,35.1611471 59.7445614,34.4702647 55.7242105,33.1099412 L55.0346667,32.8764706 L51.1741754,6.91597059 C49.9859649,7.51394118 48.8311579,8.16670588 47.7192982,8.88379412 L47.7192982,49.2527647 C53.5959298,52.9859118 60.5462456,55.1800588 68.0119298,55.1800588 C75.4680702,55.1800588 82.4088421,52.9906765 88.2807018,49.2670588 Z M81.0488421,64.3235294 L87.4527719,77.1048529 C87.7462456,77.6932941 87.5076491,78.408 86.9183158,78.7034118 C86.7465263,78.7891765 86.565193,78.8296765 86.3862456,78.8296765 C85.9472281,78.8296765 85.5272982,78.5890588 85.3173333,78.1721471 L83.1532632,73.8529412 L52.906386,73.8529412 L50.7423158,78.1745294 C50.5323509,78.5914412 50.1124211,78.8320588 49.6734035,78.8320588 C49.4944561,78.8320588 49.3131228,78.7915588 49.1413333,78.7057941 C48.552,78.4103824 48.3110175,77.6956765 48.6068772,77.1072353 L55.010807,64.3235294 L57.5828772,64.3235294 C57.5685614,64.4640882 57.5375439,64.6046471 57.4707368,64.7380588 L54.0993684,71.4705882 L81.9602807,71.4705882 L78.5865263,64.7380588 C78.5197193,64.6046471 78.4887018,64.4640882 78.474386,64.3235294 L81.0488421,64.3235294 Z" id="Combined-Shape" fill-rule="nonzero"></path>
                    </g>
                </g>
            </g>
        </g>
    </g>
</svg>