<svg xmlns="http://www.w3.org/2000/svg" width="20.31" height="15.921" viewBox="0 0 20.31 15.921"><title>eye-crossed--small</title><path d="M1.471.707,3.84,3.076A10.817,10.817,0,0,0,.093,7.6L0,7.8l.093.207a10.687,10.687,0,0,0,4.148,4.807,11.116,11.116,0,0,0,5.914,1.675,10.968,10.968,0,0,0,4.239-.863l2.291,2.291.707-.707L2.178,0Zm8.684,12.786a10.135,10.135,0,0,1-5.39-1.526A9.667,9.667,0,0,1,1.1,7.8,9.765,9.765,0,0,1,4.553,3.79L6.512,5.749a4.108,4.108,0,0,0-.212.393,4.171,4.171,0,0,0-.33,1.637,4.126,4.126,0,0,0,.579,2.133,4.319,4.319,0,0,0,1.562,1.546,4.143,4.143,0,0,0,2.116.578,3.984,3.984,0,0,0,2.027-.545l1.379,1.379A10.022,10.022,0,0,1,10.155,13.493ZM7.247,6.484l4.271,4.27a3.03,3.03,0,0,1-1.291.282A3.118,3.118,0,0,1,8.615,10.6,3.283,3.283,0,0,1,7.41,9.4a3.091,3.091,0,0,1-.44-1.623,3.159,3.159,0,0,1,.251-1.246C7.228,6.515,7.24,6.5,7.247,6.484Z"/><path d="M13.721,10.143a4.149,4.149,0,0,0,.705-2.364A4.094,4.094,0,0,0,13.188,4.79,4.094,4.094,0,0,0,10.2,3.551a4.159,4.159,0,0,0-1.638.331,4.362,4.362,0,0,0-.713.386L8.581,5a3.457,3.457,0,0,1,.37-.2A3.168,3.168,0,0,1,10.2,4.551,3.085,3.085,0,0,1,12.48,5.5a3.086,3.086,0,0,1,.946,2.282,3.154,3.154,0,0,1-.437,1.632Z"/><path d="M20.217,7.6a11.167,11.167,0,0,0-2.543-3.587,10.641,10.641,0,0,0-3.507-2.22,11.265,11.265,0,0,0-8.542.255l.775.775a10.147,10.147,0,0,1,7.413-.094A9.639,9.639,0,0,1,16.99,4.742,10.149,10.149,0,0,1,19.21,7.8a9.666,9.666,0,0,1-3.665,4.163l.714.713a10.7,10.7,0,0,0,3.957-4.669l.094-.206Z"/></svg>