<svg xmlns="http://www.w3.org/2000/svg" width="20.31" height="15.421" viewBox="0 0 20.31 15.421"><title>eye--small</title><path d="M10.155,13.421a11.125,11.125,0,0,1-5.914-1.675A10.69,10.69,0,0,1,.093,6.938L0,6.732l.093-.207A10.782,10.782,0,0,1,4.261,1.7,11.259,11.259,0,0,1,14.167.72a10.638,10.638,0,0,1,3.507,2.219,11.189,11.189,0,0,1,2.543,3.587l.093.206-.094.206a10.683,10.683,0,0,1-4.148,4.808A11.121,11.121,0,0,1,10.155,13.421ZM1.1,6.732a9.664,9.664,0,0,0,3.665,4.162,10.276,10.276,0,0,0,10.78,0A9.66,9.66,0,0,0,19.21,6.731a10.161,10.161,0,0,0-2.22-3.062,9.639,9.639,0,0,0-3.177-2.014,10.26,10.26,0,0,0-9.025.892A9.752,9.752,0,0,0,1.1,6.732Z"/><path d="M10.227,10.964a4.143,4.143,0,0,1-2.116-.578A4.335,4.335,0,0,1,6.549,8.84,4.128,4.128,0,0,1,5.97,6.707,4.176,4.176,0,0,1,6.3,5.069a4.3,4.3,0,0,1,.908-1.352A4.252,4.252,0,0,1,8.56,2.81,4.159,4.159,0,0,1,10.2,2.479a4.1,4.1,0,0,1,2.99,1.238,4.1,4.1,0,0,1,1.238,2.99,4.167,4.167,0,0,1-1.219,3h0A4.02,4.02,0,0,1,10.227,10.964ZM10.2,3.479a3.168,3.168,0,0,0-1.247.251,3.224,3.224,0,0,0-1.73,1.73A3.168,3.168,0,0,0,6.97,6.707,3.1,3.1,0,0,0,7.41,8.33,3.288,3.288,0,0,0,8.615,9.522a3.119,3.119,0,0,0,1.612.442,3.014,3.014,0,0,0,2.263-.956,3.155,3.155,0,0,0,.936-2.3,3.088,3.088,0,0,0-.946-2.283A3.084,3.084,0,0,0,10.2,3.479Z"/></svg>