<svg xmlns="http://www.w3.org/2000/svg" width="21" height="21" viewBox="0 0 21 21"><title>eye-crossed--small</title><path d="M1.816,3.247,4.185,5.616A10.821,10.821,0,0,0,.438,10.137l-.093.207.093.207a10.693,10.693,0,0,0,4.148,4.807A11.125,11.125,0,0,0,10.5,17.033a10.964,10.964,0,0,0,4.239-.863l2.291,2.29.707-.707L2.523,2.54ZM10.5,16.033a10.136,10.136,0,0,1-5.39-1.527,9.658,9.658,0,0,1-3.665-4.162A9.769,9.769,0,0,1,4.9,6.329L6.858,8.288a3.9,3.9,0,0,0-.213.393,4.176,4.176,0,0,0-.33,1.638,4.12,4.12,0,0,0,.58,2.133A4.324,4.324,0,0,0,8.456,14a4.143,4.143,0,0,0,2.116.578A3.972,3.972,0,0,0,12.6,14.03l1.38,1.379A10.009,10.009,0,0,1,10.5,16.033ZM7.593,9.023l4.27,4.271a3.045,3.045,0,0,1-1.291.282,3.13,3.13,0,0,1-1.612-.441,3.3,3.3,0,0,1-1.205-1.193,3.1,3.1,0,0,1-.44-1.623,3.168,3.168,0,0,1,.251-1.247C7.573,9.055,7.585,9.041,7.593,9.023Z"/><path d="M14.067,12.682a4.151,4.151,0,0,0,.7-2.363,4.227,4.227,0,0,0-4.228-4.228A4.162,4.162,0,0,0,8.9,6.422a4.4,4.4,0,0,0-.713.386l.734.734a3.457,3.457,0,0,1,.37-.2,3.168,3.168,0,0,1,1.247-.251,3.226,3.226,0,0,1,3.228,3.228,3.151,3.151,0,0,1-.437,1.631Z"/><path d="M20.562,10.138a11.158,11.158,0,0,0-2.543-3.586,10.625,10.625,0,0,0-3.507-2.22,11.258,11.258,0,0,0-8.542.254l.775.775a10.15,10.15,0,0,1,7.414-.094,9.635,9.635,0,0,1,3.176,2.014,10.127,10.127,0,0,1,2.22,3.062,9.654,9.654,0,0,1-3.665,4.163l.714.713a10.7,10.7,0,0,0,3.957-4.668l.094-.207Z"/></svg>